<?xml version="1.0" standalone="no"?>
<!DOCTYPE svg PUBLIC "-//W3C//DTD SVG 20010904//EN"
 "http://www.w3.org/TR/2001/REC-SVG-20010904/DTD/svg10.dtd">
<svg version="1.0" xmlns="http://www.w3.org/2000/svg"
 width="260.000000pt" height="260.000000pt" viewBox="0 0 260.000000 260.000000"
 preserveAspectRatio="xMidYMid meet">
<metadata>
Created by potrace 1.11, written by Peter Selinger 2001-2013
</metadata>
<g transform="translate(0.000000,260.000000) scale(0.100000,-0.100000)"
fill="#000000" stroke="none">
<path d="M2010 2282 c0 -3 7 -10 15 -16 10 -8 12 -15 5 -26 -6 -9 -10 -10 -10
-3 0 7 -9 17 -20 23 -24 13 -26 7 -4 -14 13 -14 13 -16 1 -16 -9 0 -18 6 -21
13 -3 6 -4 -4 -1 -23 3 -24 2 -29 -3 -16 -5 11 -16 20 -25 22 -10 1 -15 -2
-11 -7 3 -5 11 -6 17 -2 8 5 8 2 0 -9 -7 -8 -9 -19 -5 -23 4 -5 1 -5 -6 -1 -7
4 -10 12 -7 17 4 5 -1 9 -10 9 -9 0 -13 -4 -10 -10 4 -6 -7 -10 -24 -10 -18 0
-31 -5 -31 -12 0 -9 -3 -10 -8 -2 -8 13 -44 15 -36 2 3 -5 10 -6 15 -3 5 3 6
-1 3 -9 -6 -15 -24 -25 -62 -32 -16 -3 -21 -1 -17 7 6 8 2 8 -12 0 -11 -6 -24
-7 -28 -3 -5 4 -5 1 -1 -6 4 -7 12 -9 18 -6 7 4 8 2 4 -4 -4 -6 -14 -8 -23 -5
-9 4 -14 2 -10 -3 3 -6 2 -16 -4 -24 -6 -10 -9 -11 -9 -2 0 6 -7 12 -16 12 -8
0 -13 -4 -9 -9 3 -5 0 -13 -6 -17 -8 -4 -9 -3 -5 4 4 7 3 12 -3 12 -5 0 -12
-6 -14 -12 -4 -10 -6 -10 -6 0 -1 6 -6 12 -12 12 -6 0 -9 -7 -5 -15 3 -8 2
-14 -2 -14 -19 3 -33 -2 -27 -10 3 -5 0 -13 -6 -17 -7 -4 -9 -3 -5 4 3 6 2 13
-3 16 -5 3 -12 -1 -15 -10 -4 -11 -15 -14 -36 -10 -17 2 -28 0 -24 -5 3 -5 11
-6 17 -3 7 4 8 3 4 -2 -12 -12 -30 -12 -39 1 -7 9 -13 -17 -8 -40 1 -5 -4 -4
-11 3 -17 16 -33 16 -26 -1 3 -8 -5 -14 -21 -15 -14 -1 -29 -8 -34 -15 -6 -9
-8 -9 -8 1 0 6 -10 12 -22 12 -19 0 -20 2 -8 11 12 8 10 9 -7 4 -12 -3 -24 -1
-28 5 -4 7 -12 7 -26 0 -10 -6 -19 -7 -19 -3 0 4 -5 1 -10 -7 -5 -8 -10 -10
-10 -5 0 6 5 17 10 25 8 12 10 12 10 1 0 -8 3 -12 6 -8 3 3 2 13 -4 22 -8 16
-9 16 -15 1 -5 -14 -11 -15 -27 -6 -11 6 -17 16 -14 22 5 7 2 8 -7 2 -8 -4
-18 -9 -24 -10 -5 -1 -14 -3 -20 -4 -23 -5 -36 1 -29 13 6 9 4 9 -7 2 -8 -6
-21 -10 -29 -9 -8 1 -21 2 -29 3 -7 0 -11 7 -8 14 4 10 -3 12 -24 9 -16 -2
-29 -9 -29 -15 0 -6 -3 -7 -7 -4 -3 4 2 17 13 29 10 13 12 18 5 11 -16 -13
-44 -6 -34 10 3 6 1 7 -6 3 -9 -6 -9 -12 1 -24 12 -15 11 -16 -4 -4 -9 8 -22
11 -27 8 -5 -4 -12 -2 -16 4 -3 5 -15 15 -27 21 -12 6 -18 7 -14 1 3 -5 -1
-12 -8 -15 -10 -4 -14 0 -11 12 2 12 -3 17 -20 17 -13 0 -21 -4 -19 -8 7 -11
-3 -10 -26 2 -13 7 -21 7 -26 -2 -4 -6 -3 -8 3 -5 6 4 16 0 22 -7 9 -11 9 -16
0 -22 -8 -4 -9 -3 -5 4 5 8 2 10 -8 6 -9 -3 -16 -10 -16 -16 0 -5 5 -6 12 -2
8 5 9 2 5 -9 -9 -23 8 -30 27 -11 9 8 16 12 16 7 0 -5 -5 -14 -11 -20 -9 -9
-7 -11 8 -7 12 3 24 1 27 -5 4 -5 14 -8 24 -5 9 3 6 -2 -8 -11 l-25 -16 24 7
c18 5 22 3 16 -7 -5 -8 -5 -11 0 -7 4 4 15 2 23 -5 13 -10 14 -9 8 2 -6 9 -5
12 5 9 8 -3 13 -11 11 -18 -2 -10 1 -10 14 1 12 9 15 9 10 2 -4 -7 -2 -13 3
-13 6 0 11 -10 12 -22 1 -22 1 -22 9 2 6 18 8 20 9 7 1 -10 6 -15 11 -12 6 3
10 1 10 -6 0 -6 8 -9 20 -6 11 3 20 1 20 -5 0 -5 6 -6 13 -2 9 6 9 5 0 -8 -17
-19 -4 -32 15 -15 13 10 14 9 7 -2 -6 -11 -4 -13 10 -7 15 5 16 4 5 -9 -7 -8
-10 -22 -6 -30 4 -13 2 -14 -14 -5 -16 9 -18 7 -15 -10 4 -19 3 -19 -23 -3
-26 17 -27 17 -12 -1 14 -18 14 -19 -8 -7 -13 7 -26 10 -30 7 -3 -3 -1 -6 5
-6 5 0 10 -7 10 -15 0 -11 -4 -12 -14 -3 -10 8 -12 8 -8 -4 4 -9 0 -15 -9 -15
-8 0 -13 3 -11 7 2 3 -6 7 -18 7 -17 2 -19 0 -7 -7 13 -8 13 -11 1 -22 -8 -7
-11 -8 -8 -2 4 7 -2 14 -14 17 -16 4 -18 3 -8 -9 6 -8 9 -15 5 -15 -12 -3 -21
-6 -39 -13 -9 -5 -26 -6 -38 -3 -17 5 -18 3 -7 -11 11 -13 10 -15 -10 -10 -12
4 -20 2 -17 -2 3 -5 1 -11 -5 -15 -5 -3 -10 -1 -10 5 0 7 -6 10 -14 7 -7 -3
-19 0 -25 6 -9 9 -11 8 -5 -6 3 -10 12 -16 19 -14 6 3 12 -1 12 -8 0 -11 -5
-12 -21 -2 -12 6 -25 10 -29 9 -5 -1 -6 2 -2 8 3 5 -1 10 -10 10 -10 0 -13 5
-9 13 5 7 0 6 -11 -3 -10 -8 -16 -10 -12 -4 8 14 -20 27 -36 18 -8 -5 -7 -2 1
7 18 20 15 34 -5 18 -11 -10 -14 -10 -9 -1 4 7 2 12 -4 12 -7 0 -9 7 -6 17 6
14 3 14 -16 -3 -19 -16 -20 -16 -9 -1 12 15 12 20 1 30 -10 10 -11 9 -6 -3 4
-8 1 -6 -8 4 -8 10 -13 23 -9 28 3 6 -4 5 -16 -1 -18 -10 -20 -9 -14 6 5 13 3
15 -11 10 -10 -4 -15 -3 -11 3 6 9 -8 14 -28 11 -5 -1 -6 3 -2 9 3 6 10 8 15
5 5 -3 12 0 16 6 4 8 3 9 -4 5 -7 -4 -12 -2 -12 5 0 8 -4 8 -15 -1 -13 -11
-14 -10 -8 5 5 15 3 17 -11 12 -14 -5 -17 -3 -12 8 3 8 2 15 -2 15 -5 0 -17 7
-28 16 -10 8 -13 12 -5 8 10 -5 12 -3 7 5 -5 7 -14 10 -22 7 -7 -3 -16 -1 -19
5 -4 5 -11 6 -17 3 -7 -4 -8 -2 -4 5 4 6 11 9 16 6 5 -3 12 0 16 7 4 7 4 10
-1 6 -4 -4 -14 0 -22 10 -8 9 -12 12 -9 7 2 -6 -4 -11 -14 -11 -10 0 -18 3
-17 6 5 20 -16 47 -36 45 -31 -3 -31 -3 -18 -18 8 -10 7 -14 -4 -14 -8 0 -12
4 -9 9 3 4 1 8 -5 8 -5 0 -18 3 -28 7 -17 7 -17 6 -1 -11 21 -21 24 -33 4 -17
-10 9 -15 8 -19 -4 -4 -8 -13 -12 -21 -9 -9 3 -19 -3 -26 -16 -7 -13 -8 -20
-2 -16 15 9 42 -22 35 -41 -5 -12 -3 -14 8 -8 11 7 11 5 -1 -10 -8 -10 -10
-16 -5 -13 6 3 16 0 23 -8 8 -9 9 -14 2 -14 -6 0 -4 -7 4 -16 9 -8 14 -19 11
-24 -3 -5 0 -10 6 -12 6 -2 12 -16 12 -31 2 -25 9 -32 30 -28 5 1 6 -3 2 -9
-3 -6 -12 -7 -18 -3 -7 4 -6 0 2 -10 7 -9 17 -15 20 -12 4 2 8 -2 8 -10 0 -8
-5 -12 -11 -9 -6 3 -3 -1 7 -9 14 -11 15 -16 5 -20 -11 -4 -11 -6 0 -6 8 -1
10 -6 6 -13 -5 -8 0 -7 11 2 17 14 18 14 5 -9 -11 -21 -10 -23 3 -18 11 4 13
0 9 -15 -3 -11 1 -24 9 -29 11 -7 10 -12 -8 -30 l-22 -22 4 28 3 28 -20 -24
c-12 -14 -18 -17 -15 -7 3 9 -1 19 -9 22 -22 8 -24 8 -24 -8 0 -8 -7 -17 -16
-20 -9 -3 -12 -11 -8 -18 5 -9 2 -8 -9 1 -27 22 -33 4 -6 -20 13 -11 18 -18
12 -14 -20 10 -15 -2 12 -29 14 -14 25 -21 25 -16 0 5 -4 12 -10 15 -5 3 -10
10 -10 16 0 5 8 1 18 -9 10 -9 17 -19 15 -21 -2 -3 7 -11 19 -18 13 -7 17 -12
11 -13 -7 0 -13 -5 -13 -11 0 -5 6 -7 13 -3 9 6 10 4 0 -7 -16 -16 -17 -33 -1
-23 7 4 8 3 4 -5 -4 -6 -12 -8 -18 -5 -8 5 -9 1 -4 -11 5 -15 4 -16 -9 -5 -13
11 -14 10 -9 -5 5 -13 4 -16 -5 -11 -9 6 -9 3 1 -13 8 -13 20 -20 30 -17 10 2
21 0 24 -5 3 -5 11 -6 17 -3 8 5 8 3 0 -7 -18 -19 -16 -34 3 -19 12 11 15 11
12 -1 -2 -8 -7 -17 -13 -21 -6 -5 -5 -8 3 -8 6 0 12 -5 12 -11 0 -5 -4 -8 -8
-5 -5 3 -9 -2 -9 -11 0 -12 5 -11 19 7 20 24 24 20 8 -10 -13 -25 17 -21 36 5
13 17 19 13 15 -9 -1 -5 4 -4 12 3 8 6 13 21 10 31 -3 12 0 20 6 20 7 0 9 -4
6 -10 -3 -5 1 -10 9 -10 9 0 13 6 10 14 -3 8 0 17 7 22 7 4 10 3 6 -3 -4 -6 0
-13 8 -16 10 -4 12 -1 8 10 -5 13 0 15 31 11 33 -4 36 -3 20 9 -22 16 -10 17
19 1 20 -10 21 -10 8 6 -12 14 -12 16 3 10 9 -3 16 -9 16 -13 0 -3 10 -12 23
-20 22 -14 22 -13 4 7 -10 11 -15 22 -10 25 11 6 46 3 61 -6 8 -6 10 -2 6 10
-3 10 2 7 11 -7 9 -14 14 -17 11 -8 -6 20 9 34 19 18 3 -5 15 -10 25 -10 10 0
20 -5 22 -12 3 -7 7 -5 11 6 5 11 3 15 -5 10 -7 -5 -8 -3 -3 6 6 10 13 8 28
-11 14 -17 18 -19 14 -6 -6 16 -2 17 23 13 16 -2 33 0 36 5 3 6 12 5 20 -2 9
-7 14 -8 13 -3 -4 21 2 30 23 31 12 1 25 -2 28 -7 3 -5 12 1 19 13 13 20 13
21 -2 8 -11 -9 -17 -10 -17 -2 0 10 14 15 34 12 4 -1 15 4 24 11 10 8 13 9 9
1 -6 -10 11 -11 33 -3 3 1 8 2 13 1 4 0 7 4 7 9 0 14 -13 13 -28 -2 -9 -9 -12
-9 -12 -1 0 7 10 15 23 19 12 4 26 12 30 18 5 7 7 6 6 -4 -4 -38 1 -44 17 -22
9 13 21 19 27 15 7 -3 3 3 -7 15 -11 12 -14 22 -8 22 7 0 12 -5 12 -11 0 -14
61 -4 71 12 4 7 6 16 4 19 -2 3 5 6 15 6 10 0 16 -6 13 -13 -3 -7 -1 -13 5
-13 6 0 9 11 8 24 -3 26 19 30 35 5 7 -11 9 -9 9 9 0 24 15 30 23 10 4 -9 6
-9 6 -1 1 6 9 9 20 6 10 -3 22 0 25 6 4 7 1 9 -8 5 -8 -3 -23 -1 -33 6 -16 9
-15 10 6 4 17 -4 21 -3 16 6 -6 9 -3 9 13 1 13 -7 19 -17 16 -26 -4 -9 0 -15
7 -15 11 0 11 -2 2 -8 -7 -4 -13 -24 -15 -45 -2 -29 -6 -36 -18 -32 -9 3 -8
-1 4 -10 11 -8 14 -15 8 -15 -7 0 -12 -5 -12 -11 0 -5 5 -7 11 -3 7 4 10 1 7
-7 -3 -8 -10 -14 -16 -14 -5 0 -14 -4 -19 -9 -5 -5 -3 -6 5 -2 8 5 12 0 12
-14 0 -12 -4 -19 -8 -16 -4 2 -9 -5 -9 -17 -2 -17 0 -18 7 -7 7 11 9 10 7 -7
0 -12 -5 -19 -11 -16 -5 4 -6 -5 -2 -21 4 -17 2 -26 -5 -26 -8 0 -7 -6 2 -17
10 -11 10 -14 2 -9 -7 4 -13 3 -13 -1 0 -5 6 -15 13 -22 10 -11 10 -13 0 -7
-8 4 -13 1 -13 -8 0 -8 5 -16 12 -18 7 -3 5 -7 -6 -11 -11 -5 -15 -3 -10 5 4
6 3 8 -3 5 -5 -3 -8 -20 -5 -37 3 -21 0 -30 -9 -30 -10 -1 -8 -4 3 -11 15 -8
16 -13 6 -29 -7 -10 -16 -16 -22 -13 -5 4 -6 1 -1 -7 13 -21 11 -71 -2 -82
-18 -14 -16 -28 3 -28 9 0 12 5 8 12 -4 7 -3 8 5 4 9 -6 9 -11 0 -22 -6 -8 -9
-17 -5 -21 3 -3 6 -2 6 4 0 6 7 10 16 9 9 0 19 5 22 13 3 10 0 11 -9 5 -12 -7
-12 -5 0 9 11 14 16 15 29 5 13 -10 14 -10 8 0 -4 6 -3 12 3 12 5 0 8 9 6 19
-3 14 1 18 11 14 10 -4 12 0 7 13 -5 12 -3 15 6 9 10 -5 11 -2 6 14 -5 16 -2
21 12 21 14 0 15 2 5 9 -11 6 -10 10 3 15 14 5 15 9 6 20 -8 10 -9 16 -1 21 6
3 7 12 3 18 -5 8 -2 8 9 -1 13 -10 15 -9 10 14 -4 20 -2 25 8 19 8 -5 11 -4 7
2 -3 5 0 22 8 37 8 14 10 24 5 21 -5 -3 -12 0 -16 6 -4 7 -3 9 3 6 6 -4 19 1
29 9 10 9 14 13 8 10 -6 -3 -11 0 -10 7 0 15 36 51 36 37 0 -7 6 -7 20 0 11 6
20 7 20 3 0 -4 5 -2 12 5 15 15 31 16 22 0 -4 -7 -3 -8 5 -4 9 6 9 11 0 22
-10 12 -9 13 6 8 14 -6 16 -4 10 6 -5 8 -4 11 3 6 6 -4 10 -12 8 -19 -1 -7 -1
-9 1 -5 2 4 12 4 21 1 13 -4 14 -3 3 5 -10 8 -11 14 -1 28 7 13 10 14 7 3 -3
-9 1 -16 8 -16 8 0 12 8 10 20 -3 12 0 17 9 14 9 -4 12 3 11 21 -1 15 3 33 8
40 6 7 6 12 1 11 -21 -4 -26 2 -13 18 10 11 10 14 2 9 -9 -5 -13 2 -13 24 0
20 -4 29 -11 24 -8 -4 -8 -1 -1 12 7 14 6 24 -3 37 -7 10 -15 17 -18 15 -3 -2
-9 0 -13 5 -4 4 -1 7 7 7 10 1 9 4 -4 11 -15 9 -16 12 -3 31 8 11 12 26 10 33
-3 7 0 16 7 21 8 4 10 3 5 -4 -4 -7 -2 -12 3 -12 6 0 11 5 11 11 0 5 6 7 13 3
9 -5 9 -4 0 6 -19 21 13 53 38 39 15 -7 19 -6 19 5 0 7 7 17 16 20 26 10 29 7
8 -10 -18 -15 -18 -15 3 -4 14 6 20 16 17 25 -4 8 -1 15 5 15 6 0 11 -6 11
-12 0 -9 3 -8 9 2 6 8 7 18 5 22 -3 4 1 5 9 2 8 -3 22 2 31 11 9 9 16 12 16 6
0 -5 -8 -15 -17 -20 -10 -6 -13 -10 -8 -10 17 0 42 23 38 35 -2 7 4 11 14 10
10 0 17 5 15 12 -2 10 2 10 19 1 19 -10 21 -9 15 7 -6 16 -5 16 16 -2 20 -16
21 -17 8 -1 -12 16 -12 20 0 27 8 5 27 8 42 6 15 -2 26 1 25 6 -1 5 13 18 31
28 19 10 37 21 40 25 11 11 -32 -8 -63 -27 l-30 -20 30 26 c17 15 40 29 53 32
12 4 22 13 22 21 0 11 4 13 13 6 8 -7 18 -4 30 9 19 20 9 26 -11 6 -9 -9 -12
-9 -12 -1 0 7 9 15 20 18 18 6 24 17 21 37 0 4 10 15 22 25 13 10 21 26 19 37
-2 10 0 16 5 13 5 -4 10 0 10 8 0 8 -5 11 -10 8 -6 -4 -8 5 -5 21 5 25 3 27
-21 21 -18 -4 -22 -3 -12 4 11 7 10 13 -7 31 -12 13 -19 27 -16 31 3 5 -7 4
-23 -1 l-28 -10 24 19 24 19 -28 -3 c-15 -2 -34 3 -42 11 -8 8 -11 14 -6 14 5
0 14 -5 21 -12 9 -9 12 -9 12 3 0 12 -12 15 -50 15 -27 1 -50 -3 -50 -7 0 -4
9 -6 19 -4 23 4 48 -20 31 -30 -6 -4 -9 -1 -8 5 2 7 -5 14 -15 15 -14 3 -17
-1 -12 -13 5 -13 2 -12 -13 3 -11 11 -18 23 -16 26 2 3 -3 6 -11 6 -8 0 -15
-2 -15 -5z m188 -87 c-3 -3 -9 2 -12 12 -6 14 -5 15 5 6 7 -7 10 -15 7 -18z
m-1873 -153 c-3 -3 -11 0 -18 7 -9 10 -8 11 6 5 10 -3 15 -9 12 -12z m892 -46
c14 -15 14 -18 2 -8 -9 6 -18 10 -21 7 -3 -3 -10 1 -16 8 -9 10 -8 14 3 14 8
0 23 -10 32 -21z m-14 -527 c-8 -8 -13 -7 -18 2 -5 8 -4 10 3 5 7 -4 12 -2 12
5 0 7 3 9 7 6 4 -4 2 -12 -4 -18z m-82 -42 c-10 -9 -11 -8 -5 6 3 10 9 15 12
12 3 -3 0 -11 -7 -18z m-231 -71 c0 -3 -4 -8 -10 -11 -5 -3 -10 -1 -10 4 0 6
5 11 10 11 6 0 10 -2 10 -4z m704 -54 c2 -4 -4 -8 -14 -8 -10 0 -16 4 -14 8 3
4 9 8 14 8 5 0 11 -4 14 -8z"/>
<path d="M1771 2164 c-1 -6 2 -13 5 -17 8 -8 34 3 34 15 0 6 -6 6 -14 -1 -11
-9 -15 -9 -19 1 -3 7 -6 8 -6 2z"/>
<path d="M1660 2126 c0 -3 9 -10 20 -16 11 -6 20 -8 20 -6 0 3 -9 10 -20 16
-11 6 -20 8 -20 6z"/>
<path d="M1071 2044 c0 -11 3 -14 6 -6 3 7 2 16 -1 19 -3 4 -6 -2 -5 -13z"/>
<path d="M1095 2051 c-3 -5 -2 -12 3 -15 5 -3 9 1 9 9 0 17 -3 19 -12 6z"/>
<path d="M2231 2046 c-9 -10 -8 -15 2 -19 8 -3 13 3 13 14 0 23 0 23 -15 5z"/>
<path d="M1149 2033 c-13 -16 -12 -17 4 -4 9 7 17 15 17 17 0 8 -8 3 -21 -13z"/>
<path d="M185 1960 c3 -5 11 -10 16 -10 6 0 7 5 4 10 -3 6 -11 10 -16 10 -6 0
-7 -4 -4 -10z"/>
<path d="M870 1749 c0 -5 5 -7 10 -4 6 3 10 8 10 11 0 2 -4 4 -10 4 -5 0 -10
-5 -10 -11z"/>
<path d="M1720 1705 c-9 -10 -9 -15 -1 -15 6 0 11 5 11 11 0 5 5 7 12 3 7 -4
8 -3 4 4 -9 15 -11 15 -26 -3z"/>
<path d="M244 1602 c3 -5 0 -13 -6 -15 -9 -4 -10 -6 -1 -6 17 -1 25 16 12 25
-7 4 -9 3 -5 -4z"/>
<path d="M215 1529 c-4 -6 -5 -12 -2 -15 2 -3 7 2 10 11 7 17 1 20 -8 4z"/>
<path d="M726 1327 c3 -10 9 -15 12 -12 3 3 0 11 -7 18 -10 9 -11 8 -5 -6z"/>
<path d="M315 1320 c-3 -5 -1 -10 4 -10 6 0 11 5 11 10 0 6 -2 10 -4 10 -3 0
-8 -4 -11 -10z"/>
<path d="M644 1318 c10 -6 22 -6 26 -2 5 5 -3 10 -18 11 -22 1 -24 0 -8 -9z"/>
<path d="M675 1300 c-3 -6 1 -7 9 -4 18 7 21 14 7 14 -6 0 -13 -4 -16 -10z"/>
<path d="M1534 1259 c-4 -7 -3 -9 4 -5 5 3 13 0 15 -6 4 -9 6 -10 6 -1 1 17
-16 25 -25 12z"/>
<path d="M2182 1239 c2 -7 -1 -14 -7 -14 -23 -3 -45 -18 -39 -26 3 -5 -2 -9
-10 -9 -9 0 -16 -4 -16 -10 0 -5 6 -10 13 -10 7 0 8 -3 2 -8 -6 -4 -16 -18
-23 -32 -11 -23 -12 -23 -6 -2 6 23 5 23 -15 5 -21 -18 -28 -29 -12 -19 5 3
12 -2 15 -11 4 -10 4 -14 0 -10 -4 4 -19 -3 -33 -15 -24 -21 -25 -22 -8 -1 15
17 16 23 5 29 -7 4 -10 3 -5 -1 4 -5 -3 -20 -15 -33 -13 -14 -17 -22 -10 -18
13 8 16 -3 6 -28 -3 -9 -10 -13 -15 -10 -5 3 -6 -2 -3 -10 3 -9 11 -13 18 -9
6 4 5 -1 -3 -10 -9 -12 -10 -17 -2 -17 7 0 9 -4 6 -10 -3 -5 -1 -10 5 -10 6 0
8 -5 4 -12 -5 -8 -2 -9 10 -5 13 5 17 3 13 -7 -5 -13 14 -26 56 -40 13 -4 16
-2 11 7 -5 8 -2 7 9 -2 15 -12 17 -11 17 3 0 9 5 16 11 16 5 0 7 -6 3 -12 -4
-7 -3 -10 1 -5 5 4 17 -1 28 -10 11 -10 17 -13 14 -6 -12 19 7 23 38 7 25 -13
26 -13 15 2 -12 13 -8 21 25 52 21 20 35 32 31 25 -3 -6 -2 -15 4 -18 8 -5 10
17 9 69 -1 41 -5 75 -8 74 -31 -3 -47 4 -48 25 -2 21 -1 21 13 3 8 -11 14 -15
14 -10 0 6 -11 21 -25 34 -14 13 -23 30 -21 37 3 7 2 12 -2 12 -20 -3 -33 2
-27 11 3 6 1 10 -5 10 -6 0 -8 5 -4 12 5 7 3 8 -5 4 -7 -5 -10 -15 -7 -23 4
-8 1 -11 -5 -7 -6 3 -9 15 -6 25 3 10 1 22 -4 25 -5 3 -8 0 -7 -7z m-15 -34
c0 -8 -4 -15 -9 -15 -10 0 -11 14 -1 23 9 10 10 9 10 -8z m98 -65 c3 -5 1 -10
-4 -10 -6 0 -11 5 -11 10 0 6 2 10 4 10 3 0 8 -4 11 -10z m-177 -235 c-3 -3
-9 2 -12 12 -6 14 -5 15 5 6 7 -7 10 -15 7 -18z m121 13 c7 11 9 10 14 -3 4
-9 3 -13 -2 -10 -5 3 -13 0 -17 -6 -7 -12 -24 6 -24 26 0 6 5 3 10 -5 8 -12
12 -13 19 -2z"/>
<path d="M2279 924 c-17 -18 -19 -23 -6 -18 9 3 17 10 17 16 0 5 4 7 8 4 5 -3
9 1 9 9 0 19 1 19 -28 -11z"/>
<path d="M1746 889 c3 -10 0 -20 -7 -25 -7 -4 -10 -3 -6 3 4 6 -2 13 -14 16
-16 4 -18 3 -9 -8 10 -11 8 -13 -9 -10 -14 2 -18 -1 -15 -10 4 -10 0 -13 -16
-10 -19 4 -20 2 -8 -12 11 -15 11 -16 -4 -10 -20 7 -34 -8 -17 -19 8 -5 9 -3
4 6 -5 9 -4 11 4 6 9 -6 9 -11 0 -22 -6 -7 -15 -12 -18 -9 -4 2 -8 -2 -8 -10
0 -8 5 -12 11 -9 6 3 3 -1 -6 -9 -20 -16 -25 -32 -6 -21 7 4 8 3 4 -4 -4 -7
-14 -12 -22 -12 -8 0 -14 -5 -14 -11 0 -5 5 -7 12 -3 6 4 8 3 4 -4 -3 -6 -15
-9 -26 -7 -13 3 -17 -1 -13 -11 3 -9 -1 -14 -12 -14 -10 0 -13 5 -9 12 4 7 3
8 -5 4 -6 -4 -9 -12 -6 -17 4 -5 1 -9 -5 -9 -6 0 -8 -4 -5 -10 3 -6 -1 -10 -9
-10 -10 0 -13 -6 -9 -17 4 -11 3 -14 -5 -9 -11 7 -14 3 -16 -26 -1 -7 -5 -17
-11 -21 -6 -6 -6 -10 2 -13 10 -4 10 -8 0 -19 -7 -7 -16 -10 -21 -7 -6 3 1
-10 14 -28 13 -18 19 -31 14 -27 -6 3 -11 0 -11 -8 0 -8 3 -14 6 -13 3 0 13 0
21 -1 13 -1 13 -2 0 -11 -10 -6 -11 -10 -2 -10 6 0 12 -8 12 -18 0 -23 19 -42
43 -42 10 0 15 -4 12 -10 -3 -5 1 -10 9 -10 9 0 16 6 16 13 1 6 6 3 13 -8 15
-25 92 -32 82 -7 -4 12 -3 12 8 3 11 -9 17 -8 27 4 10 12 16 13 28 3 11 -9 14
-9 9 -1 -4 6 -3 15 3 18 6 4 9 1 8 -6 -2 -7 6 -14 17 -16 16 -3 17 -2 5 6 -10
7 -11 11 -3 11 7 0 20 -15 28 -32 l14 -33 -5 30 -5 30 13 -27 c12 -24 14 -25
28 -10 13 14 12 15 -3 9 -15 -6 -16 -4 -7 13 6 11 13 20 16 20 3 0 2 -4 -1
-10 -3 -5 0 -10 7 -10 7 0 19 9 26 21 11 17 16 19 29 7 15 -12 15 -11 4 9 -10
19 -9 22 3 17 11 -4 14 0 11 15 -3 15 0 18 13 14 9 -3 14 -3 10 2 -4 4 0 14
10 22 9 8 11 12 5 8 -7 -3 -13 -2 -13 4 0 5 6 12 13 14 9 4 8 6 -2 6 -11 1
-11 4 0 18 12 15 12 16 -1 8 -13 -8 -13 -7 -1 8 8 10 9 17 3 17 -11 0 -9 31 4
52 5 7 3 8 -6 3 -9 -6 -12 -4 -8 7 4 8 2 21 -4 29 -8 11 -9 10 -4 -4 3 -11 2
-16 -4 -12 -14 9 -12 42 3 49 6 3 -1 3 -16 1 -25 -4 -27 -2 -15 12 12 15 10
16 -17 9 -21 -5 -26 -4 -15 3 12 8 11 13 -9 30 -16 14 -19 21 -10 21 8 0 10 3
4 8 -5 4 -11 14 -13 22 -2 8 -8 17 -13 18 -6 3 -5 10 2 18 7 8 9 17 5 21 -3 3
-6 1 -6 -5 0 -7 -8 -12 -17 -12 -15 0 -16 2 -3 10 11 7 11 10 2 10 -8 0 -10 5
-6 13 5 7 2 7 -10 -2 -15 -12 -17 -12 -14 0 2 8 -3 13 -9 12 -15 -3 -18 14 -3
19 6 2 2 8 -8 15 -15 9 -19 8 -19 -3 0 -7 5 -10 10 -7 6 4 7 1 2 -7 -6 -10
-12 -7 -27 11 -10 13 -16 17 -12 8z m-259 -374 c0 -8 -4 -12 -9 -9 -5 3 -6 10
-3 15 9 13 12 11 12 -6z m58 -134 c-6 -5 -25 10 -25 20 0 5 6 4 14 -3 8 -7 12
-15 11 -17z"/>
<path d="M1905 370 c-3 -5 -1 -10 4 -10 6 0 11 5 11 10 0 6 -2 10 -4 10 -3 0
-8 -4 -11 -10z"/>
<path d="M1720 339 c-7 -11 -10 -23 -7 -25 2 -2 9 7 15 21 14 30 7 33 -8 4z"/>
<path d="M1583 332 c-9 -15 -7 -18 8 -19 20 -2 23 5 11 24 -6 9 -11 8 -19 -5z"/>
<path d="M1620 320 c0 -5 9 -8 20 -7 21 1 18 10 -5 13 -8 1 -15 -2 -15 -6z"/>
<path d="M1670 318 c0 -4 7 -8 15 -8 8 0 15 4 15 8 0 5 -7 9 -15 9 -8 0 -15
-4 -15 -9z"/>
</g>
</svg>
